{"glyphs":{":":{"x_min":0,"x_max":243,"ha":243,"o":"m 122 403 q 153 403 175 382 q 196 360 196 328 q 196 297 175 275 q 153 254 122 254 q 92 254 69 275 q 47 297 47 328 q 47 360 68 382 q 90 403 122 403 z m 122 143 q 153 143 175 121 q 196 100 196 68 q 196 37 175 15 q 154 -7 122 -7 q 91 -7 69 15 q 47 37 47 68 q 47 100 68 121 q 90 143 122 143 z"},"$":{"x_min":0,"x_max":419,"ha":419,"o":"m 256 689 l 250 617 q 277 613 297 607 q 317 601 347 587 l 347 474 q 309 497 278 509 q 239 524 204 524 q 190 524 173 516 l 161 494 q 169 465 229 423 q 311 366 333 344 q 388 289 388 224 q 388 163 349 119 q 311 74 250 60 q 250 39 251 15 q 253 -10 257 -39 l 145 -39 q 147 -19 149 3 q 151 25 151 47 q 121 47 91 51 q 61 55 31 63 l 31 179 q 65 165 96 158 q 127 150 159 150 q 200 150 229 164 q 267 183 267 220 q 267 252 209 295 q 104 373 102 375 q 43 430 43 488 q 43 538 73 569 q 103 601 152 610 q 152 627 150 646 q 148 666 146 689 z"},"?":{"x_min":0,"x_max":360,"ha":360,"o":"m 83 180 l 82 237 q 82 323 149 402 q 216 480 216 507 q 216 531 199 546 q 182 562 156 562 q 127 562 91 545 q 72 536 31 510 l 31 622 q 64 639 99 649 q 134 659 168 659 q 236 659 283 619 q 329 578 329 510 q 329 454 290 401 q 196 274 195 269 q 194 263 193 248 q 192 232 192 220 l 192 180 z m 137 143 q 167 143 189 121 q 211 99 211 68 q 211 38 189 16 q 168 -7 137 -7 q 105 -7 83 15 q 62 37 62 68 q 62 100 83 121 q 104 143 137 143 z"},"<":{"x_min":0,"x_max":467,"ha":467,"o":"m 31 331 q 132 376 232 423 q 332 471 430 521 l 433 401 q 400 390 363 375 q 325 359 287 343 q 249 326 211 309 q 174 292 142 275 q 175 256 212 238 q 250 220 289 203 q 327 187 365 171 q 402 156 436 144 l 431 32 q 386 57 330 84 q 274 112 219 139 q 163 165 114 188 q 64 212 31 228 z"},"'":{"x_min":0,"x_max":188,"ha":188,"o":"m 53 461 l 31 658 l 94 659 l 156 658 l 135 461 l 94 461 z"},"=":{"x_min":0,"x_max":466,"ha":466,"o":"m 31 238 q 80 232 130 232 l 342 232 q 389 232 435 238 l 435 133 q 413 135 390 137 q 367 139 348 139 l 127 139 q 80 139 31 133 z m 31 419 q 80 413 130 413 l 342 413 q 389 413 435 419 l 435 313 q 413 315 390 317 q 367 319 348 319 l 127 319 q 80 319 31 313 z"},"a":{"x_min":0,"x_max":397,"ha":397,"o":"m 257 38 q 233 17 208 4 q 182 -8 151 -8 q 95 -8 58 31 q 21 69 21 127 q 21 195 69 236 q 116 277 187 277 q 220 277 251 269 l 251 280 q 251 315 233 330 q 215 344 180 344 q 153 344 123 336 q 93 328 61 315 l 61 418 q 98 427 130 432 q 162 438 193 438 q 287 438 323 398 q 359 359 359 265 q 359 234 359 204 q 358 173 358 143 q 358 96 359 66 q 360 37 366 0 l 257 0 z m 203 188 q 175 188 154 176 q 133 163 133 136 q 133 115 146 103 q 159 91 181 91 q 197 91 213 97 q 229 103 251 123 l 251 182 q 229 188 203 188 z"},"L":{"x_min":0,"x_max":383,"ha":383,"o":"m 31 0 q 35 26 37 62 q 39 97 39 130 l 39 521 q 39 583 31 651 l 164 651 q 160 618 158 587 q 156 557 156 521 l 156 104 l 210 104 l 230 104 q 306 104 371 110 l 371 0 z"},"3":{"x_min":0,"x_max":422,"ha":422,"o":"m 89 397 q 113 407 132 416 q 150 425 164 435 q 206 466 206 503 q 206 527 188 542 q 170 556 145 556 q 124 556 99 548 q 74 540 35 517 l 35 628 q 104 657 170 657 q 203 657 231 648 q 260 639 281 621 q 302 604 313 578 q 325 553 325 521 q 325 492 313 465 q 302 438 280 414 q 306 409 327 396 q 348 382 363 361 q 391 320 391 265 q 391 128 276 54 q 178 -10 38 -10 l 31 102 l 53 102 q 130 102 192 138 q 268 181 268 252 q 268 281 250 301 q 231 321 202 321 q 183 321 165 314 q 152 311 131 299 z"},";":{"x_min":0,"x_max":247,"ha":247,"o":"m 124 403 q 155 403 177 382 q 198 360 198 328 q 198 297 177 275 q 155 254 124 254 q 94 254 71 275 q 49 297 49 328 q 49 360 70 382 q 92 403 124 403 z m 53 -87 q 73 -70 88 -48 q 103 -26 112 0 q 84 0 65 21 q 47 41 47 70 q 47 102 68 124 q 90 146 122 146 q 158 146 179 120 q 200 93 200 56 q 200 19 182 -19 q 164 -57 135 -87 z"},"J":{"x_min":0,"x_max":345,"ha":345,"o":"m 44 540 l 44 651 l 312 651 q 309 622 307 583 q 305 544 305 508 q 305 454 307 410 q 313 258 313 251 q 313 89 269 0 q 209 -118 49 -174 l 2 -64 q 109 -45 152 31 q 187 92 187 210 l 187 547 q 140 547 109 545 q 79 544 44 540 z"},"V":{"x_min":0,"x_max":506,"ha":506,"o":"m 184 0 q 166 62 126 211 q 77 393 68 423 q 37 529 1 632 l 125 663 q 137 553 178 401 q 214 272 250 144 q 269 212 299 315 q 337 445 348 489 q 371 582 384 664 l 505 631 q 468 540 433 424 q 404 330 372 212 q 321 24 314 0 z"},"\"":{"x_min":0,"x_max":345,"ha":345,"o":"m 53 461 l 31 658 l 94 659 l 156 658 l 135 461 l 94 461 z m 210 461 l 188 658 l 251 659 l 313 658 l 292 461 l 251 461 z"},"7":{"x_min":0,"x_max":417,"ha":417,"o":"m 45 540 l 45 651 l 416 651 l 416 553 q 416 549 349 430 q 249 254 213 188 q 134 42 111 -20 l 0 41 q 49 109 103 204 q 138 266 194 376 q 264 511 283 547 q 258 547 233 547 q 208 547 184 548 q 127 548 106 546 q 85 545 45 540 z"},"S":{"x_min":0,"x_max":438,"ha":438,"o":"m 356 509 q 321 528 285 541 q 248 554 214 554 q 189 554 173 543 q 157 533 157 511 q 157 479 222 430 q 320 354 341 333 q 406 267 406 195 q 406 97 332 40 q 265 -12 162 -12 q 131 -12 103 -8 q 74 -4 21 12 l 21 137 q 56 118 91 108 q 126 98 162 98 q 209 98 242 116 q 283 139 283 183 q 283 224 220 275 q 160 322 102 370 q 37 432 37 495 q 37 569 87 612 q 138 655 213 655 q 248 655 282 647 q 316 640 356 625 z"},"}":{"x_min":0,"x_max":336,"ha":336,"o":"m 207 264 q 155 280 132 319 q 108 357 108 425 l 108 519 q 108 567 90 583 q 72 600 32 591 l 31 691 q 76 689 112 684 q 148 679 173 660 q 197 641 209 604 q 222 566 221 501 l 220 423 q 220 369 246 342 q 271 314 305 310 l 305 219 q 271 214 246 187 q 220 159 220 105 l 221 19 q 222 -47 209 -83 q 196 -119 172 -137 q 147 -154 112 -159 q 76 -163 31 -165 l 32 -65 q 72 -76 90 -60 q 108 -43 108 6 l 108 104 q 108 171 132 209 q 155 248 207 265 z"},"Z":{"x_min":0,"x_max":460,"ha":460,"o":"m 429 110 l 429 0 l 31 0 l 31 100 q 77 161 125 243 q 141 271 208 396 q 257 488 290 547 l 171 547 q 118 547 61 539 l 61 651 l 428 651 l 428 553 q 365 462 293 332 q 230 218 168 104 l 266 104 l 286 104 q 363 104 429 110 z"},"x":{"x_min":0,"x_max":417,"ha":417,"o":"m 401 55 l 303 -18 q 287 16 258 62 q 223 112 207 136 q 182 99 156 60 q 131 21 113 -18 l 16 53 q 46 83 84 134 q 127 192 148 221 q 144 228 106 279 q 61 343 32 375 l 128 443 q 137 427 157 394 q 178 360 211 311 q 232 343 256 378 q 280 414 293 444 l 385 376 q 355 344 312 285 q 283 247 270 229 q 300 184 331 140 q 368 89 401 55 z"},")":{"x_min":0,"x_max":287,"ha":287,"o":"m 112 741 q 181 651 218 545 q 256 439 256 329 q 256 215 219 109 q 183 3 112 -90 l 31 -49 q 81 27 108 127 q 136 228 136 325 q 136 425 109 522 q 83 620 31 699 z"},"&":{"x_min":0,"x_max":648,"ha":648,"o":"m 530 -15 q 514 11 481 42 q 466 58 447 74 q 375 -10 264 -10 q 168 -10 100 52 q 31 113 31 209 q 31 274 65 329 q 97 379 155 416 q 143 439 136 458 q 130 477 130 500 q 130 571 185 616 q 235 657 309 657 q 344 657 378 650 q 413 643 449 629 l 449 518 q 414 537 388 546 q 354 558 321 558 q 289 558 268 542 q 247 526 247 495 q 247 452 326 363 q 414 272 431 255 q 437 273 439 298 q 442 323 442 345 q 442 387 430 436 q 450 436 471 435 q 491 435 512 435 l 526 435 q 575 435 617 441 l 617 333 q 591 336 563 336 l 550 336 l 550 320 q 550 240 515 168 q 548 133 562 120 q 583 101 615 78 z m 212 328 q 182 310 164 281 q 146 253 146 218 q 146 169 182 133 q 218 97 267 97 q 299 97 326 111 q 354 125 376 150 q 319 207 292 236 q 243 287 212 328 z"},"_":{"x_min":0,"x_max":488,"ha":488,"o":"m 0 -130 l 488 -130 l 488 -225 l 0 -225 z"},"v":{"x_min":0,"x_max":386,"ha":386,"o":"m 270 442 l 385 408 q 348 331 310 206 q 278 103 247 0 l 138 0 q 134 11 98 136 q 79 200 53 277 q 26 354 1 408 l 120 442 q 129 381 152 298 q 182 201 195 154 q 216 225 239 303 q 262 382 270 442 z"},"O":{"x_min":0,"x_max":523,"ha":523,"o":"m 262 -8 q 128 -8 68 97 q 21 180 21 325 q 21 473 67 554 q 127 659 262 659 q 396 659 455 555 q 502 472 502 325 q 502 181 455 98 q 396 -8 262 -8 z m 262 558 q 188 558 162 473 q 146 420 146 325 q 146 229 161 180 q 188 95 262 95 q 337 95 363 179 q 379 229 379 325 q 379 425 364 472 q 338 558 262 558 z"},"(":{"x_min":0,"x_max":287,"ha":287,"o":"m 175 -90 q 106 2 69 106 q 31 211 31 322 q 31 434 68 541 q 105 647 175 741 l 256 699 q 206 622 179 522 q 151 423 151 325 q 151 229 178 128 q 205 28 256 -49 z"},"C":{"x_min":0,"x_max":403,"ha":403,"o":"m 372 524 q 349 536 322 544 q 295 553 271 553 q 207 553 171 504 q 136 456 136 390 q 136 289 204 201 q 270 117 366 80 l 310 -21 q 179 36 99 141 q 12 254 12 390 q 12 504 77 580 q 146 660 259 660 q 288 660 315 655 q 342 649 372 638 z"},"W":{"x_min":0,"x_max":702,"ha":702,"o":"m 261 0 l 143 0 q 141 12 102 212 q 78 335 58 424 q 31 540 1 634 l 129 660 q 129 566 158 437 q 185 325 211 215 l 292 559 q 292 560 285 583 q 278 607 270 634 l 397 660 q 405 564 438 436 q 466 325 495 215 q 506 266 526 361 q 551 473 558 510 q 572 589 578 660 l 701 634 q 679 554 648 424 q 627 331 603 218 q 579 105 557 0 l 437 0 l 351 354 z"},"A":{"x_min":0,"x_max":540,"ha":540,"o":"m 179 204 q 175 192 155 122 q 132 40 123 -19 l 0 18 q 17 55 34 109 q 40 127 62 203 l 34 199 l 34 310 l 93 307 l 195 651 l 349 651 q 365 594 404 442 q 440 303 464 226 q 501 104 540 20 l 412 -19 q 406 33 391 94 q 370 167 360 204 z m 271 541 l 206 306 l 334 307 z"},"f":{"x_min":0,"x_max":274,"ha":274,"o":"m 166 0 l 43 0 q 50 51 50 110 l 50 330 q 38 330 23 329 q 9 327 1 326 l 1 430 l 50 430 q 50 534 76 586 q 112 657 208 657 q 247 657 282 645 l 282 544 q 266 553 251 558 q 237 562 223 562 q 183 562 169 527 q 160 505 160 458 l 160 430 l 264 430 l 264 326 q 214 332 165 332 l 160 332 q 160 305 159 247 q 158 189 158 159 q 158 105 159 73 q 160 41 166 0 z"},"Q":{"x_min":0,"x_max":543,"ha":543,"o":"m 473 -71 l 356 -126 q 349 -94 339 -69 q 330 -44 312 -5 q 307 -7 296 -7 q 286 -7 280 -8 l 271 -8 q 138 -8 78 98 q 31 181 31 326 q 31 472 77 554 q 137 659 271 659 q 405 659 465 555 q 512 473 512 325 q 512 230 494 166 q 470 78 411 33 q 423 5 438 -21 q 450 -41 473 -71 z m 389 325 q 389 422 373 472 q 346 558 271 558 q 198 558 172 472 q 155 418 155 325 q 155 228 170 180 q 196 95 269 95 q 260 112 250 129 q 240 146 228 165 l 327 215 q 340 174 356 141 q 376 173 384 230 q 389 269 389 325 z"},"w":{"x_min":0,"x_max":582,"ha":582,"o":"m 238 0 l 124 0 q 115 31 89 130 q 63 229 50 275 q 27 350 1 409 l 119 442 q 126 386 146 305 q 171 213 183 168 q 193 214 206 265 q 233 373 239 430 l 343 430 q 349 373 367 300 q 392 213 402 172 q 405 184 432 271 q 465 381 465 442 l 581 411 q 548 333 513 207 q 484 104 457 0 l 345 0 l 290 197 z"},"-":{"x_min":0,"x_max":355,"ha":355,"o":"m 31 282 q 74 276 115 276 l 230 276 q 278 276 324 282 l 324 177 q 301 180 276 182 q 251 184 227 184 l 130 184 q 109 184 88 182 q 67 181 31 177 z"},"E":{"x_min":0,"x_max":457,"ha":457,"o":"m 60 0 q 67 62 67 117 l 67 278 q 59 278 53 278 q 47 277 31 274 l 31 387 l 67 384 l 67 528 q 67 586 60 651 l 405 651 l 405 540 q 378 543 350 545 q 321 547 294 547 l 185 547 l 185 382 l 231 382 l 249 382 q 312 382 373 388 l 373 275 q 349 278 324 280 q 299 282 273 282 l 185 282 l 185 104 l 275 104 l 294 104 q 364 104 426 110 l 426 0 z"},"s":{"x_min":0,"x_max":370,"ha":370,"o":"m 307 317 q 274 331 251 339 q 218 350 191 350 q 169 350 159 344 q 149 338 149 327 q 149 313 244 262 q 339 210 339 134 q 339 63 284 25 q 236 -8 163 -8 q 128 -8 98 -1 q 68 5 31 20 l 31 129 q 62 112 96 102 q 130 92 163 92 q 188 92 202 98 q 225 106 225 127 q 225 146 134 196 q 44 246 44 317 q 44 376 84 407 q 125 438 187 438 q 212 438 224 436 q 236 434 307 418 z"},">":{"x_min":0,"x_max":467,"ha":467,"o":"m 436 228 q 402 212 353 188 q 304 165 248 139 q 192 112 137 84 q 81 57 36 32 l 31 144 q 64 156 102 171 q 140 187 178 203 q 217 220 254 238 q 292 256 325 275 q 293 292 255 309 q 218 326 180 343 q 142 359 104 375 q 66 390 34 401 l 37 521 q 135 471 235 423 q 335 376 436 331 z"},"l":{"x_min":0,"x_max":187,"ha":187,"o":"m 31 0 q 37 50 37 100 l 37 543 q 37 597 31 651 l 155 651 q 148 604 148 551 l 148 110 q 148 51 155 0 z"},"8":{"x_min":0,"x_max":487,"ha":487,"o":"m 62 482 q 62 566 110 612 q 158 658 243 658 q 327 658 376 612 q 425 566 425 482 q 425 441 414 412 q 400 374 368 359 q 415 344 438 295 q 456 254 456 197 q 456 99 400 45 q 344 -8 243 -8 q 145 -8 88 46 q 31 100 31 197 q 31 255 49 294 q 71 344 119 359 q 88 374 75 408 q 62 441 62 482 z m 314 483 q 314 522 298 545 q 281 568 243 568 q 207 568 189 545 q 172 521 172 483 q 172 443 188 421 q 205 399 243 399 q 281 399 298 421 q 314 443 314 483 z m 332 202 q 332 253 313 280 q 291 312 243 312 q 195 312 173 280 q 154 253 154 202 q 154 153 175 125 q 196 97 243 97 q 291 97 312 125 q 332 152 332 202 z"},"\\":{"x_min":0,"x_max":332,"ha":332,"o":"m 98 702 q 118 604 153 492 q 173 432 224 288 q 275 145 297 80 q 307 52 313 34 q 320 16 332 -5 l 235 -51 q 230 -42 226 -20 q 212 39 212 40 l 35 569 q 27 592 19 613 q 11 634 0 653 z"},"e":{"x_min":0,"x_max":405,"ha":405,"o":"m 140 185 q 140 140 167 113 q 194 87 240 87 q 275 87 311 104 q 337 118 373 146 l 371 27 q 336 10 303 0 q 271 -9 233 -9 q 132 -9 77 55 q 21 118 21 222 q 21 310 66 370 q 116 437 202 437 q 286 437 330 383 q 374 330 374 244 q 374 217 369 185 z m 205 349 q 172 349 155 327 q 139 306 139 271 l 270 271 q 270 308 256 326 q 239 349 205 349 z"},"b":{"x_min":0,"x_max":431,"ha":431,"o":"m 148 540 l 148 406 q 171 421 194 428 q 217 436 242 436 q 323 436 369 367 q 409 308 409 224 q 409 136 368 72 q 319 -3 236 -3 q 179 -3 142 38 l 142 0 l 31 0 q 35 27 36 52 q 37 77 37 110 q 37 163 40 271 q 43 380 43 436 q 43 523 41 557 q 39 590 31 651 l 155 651 q 148 600 148 540 z m 214 100 q 256 100 277 143 q 294 176 294 224 q 294 269 280 297 q 261 336 220 336 q 201 336 184 327 q 166 318 148 303 l 148 131 q 162 117 179 108 q 196 100 214 100 z"},"%":{"x_min":0,"x_max":652,"ha":652,"o":"m 164 319 q 92 319 59 372 q 31 415 31 492 q 31 568 59 612 q 92 665 163 665 q 235 665 269 612 q 296 569 296 491 q 296 414 270 372 q 236 319 164 319 z m 489 -3 q 418 -3 385 50 q 357 94 357 170 q 357 248 384 290 q 417 343 489 343 q 561 343 594 290 q 621 246 621 170 q 621 92 595 50 q 562 -3 489 -3 z m 117 30 q 129 37 213 199 q 279 327 365 502 q 444 664 443 670 l 532 625 q 518 613 444 471 q 377 339 306 191 q 256 88 206 -16 z m 164 595 q 144 595 133 570 q 122 545 122 492 q 122 451 127 431 q 137 390 164 390 q 185 390 195 415 q 206 439 206 491 q 206 545 196 570 q 186 595 164 595 z m 489 272 q 469 272 458 248 q 447 223 447 170 q 447 129 452 108 q 462 67 489 67 q 510 67 521 92 q 531 117 531 170 q 531 211 526 231 q 517 272 489 272 z"},"m":{"x_min":0,"x_max":638,"ha":638,"o":"m 145 398 q 167 416 189 425 q 212 435 238 435 q 265 435 287 426 q 309 418 332 400 q 358 417 386 427 q 413 438 441 438 q 524 438 572 375 q 616 317 616 230 q 616 131 570 33 q 529 -54 453 -134 l 369 -62 q 428 -17 464 66 q 500 148 500 227 q 500 271 482 300 q 461 334 419 334 q 406 334 395 331 q 384 328 371 322 q 377 297 379 270 q 381 243 381 211 q 381 179 379 129 q 378 79 378 78 q 378 34 382 0 l 260 0 q 266 56 266 110 l 266 238 q 266 286 260 302 q 248 334 209 334 q 195 334 178 326 q 168 321 148 311 q 148 285 147 233 q 146 181 146 154 q 146 97 148 72 q 149 47 155 0 l 31 0 q 31 48 35 146 q 38 245 38 281 q 38 361 31 430 l 145 430 z"},"#":{"x_min":0,"x_max":562,"ha":562,"o":"m 271 660 q 263 623 258 588 q 254 553 247 518 l 345 518 q 348 549 350 569 q 353 589 354 604 q 355 618 356 631 q 356 644 356 660 l 454 660 q 449 640 446 623 q 443 605 440 589 q 438 573 435 556 q 433 538 430 518 q 457 518 481 519 q 505 521 531 523 l 531 418 q 503 420 477 422 q 450 424 420 424 q 418 410 416 393 q 414 376 412 358 q 410 340 409 323 q 407 306 406 293 q 435 293 459 294 q 483 296 511 299 l 511 193 q 483 195 457 197 q 430 199 397 199 q 396 176 395 154 q 395 132 393 112 q 391 91 390 62 q 389 34 389 5 l 286 5 q 293 35 298 66 q 303 97 306 130 l 312 199 l 216 199 q 213 171 209 144 q 205 117 203 90 q 202 75 200 54 q 198 33 197 5 l 97 5 q 102 36 109 65 q 116 95 120 130 q 122 148 125 166 q 127 183 129 199 q 79 197 31 193 l 31 299 q 84 293 139 293 q 140 308 142 326 q 144 344 146 362 q 147 380 149 396 q 150 412 151 424 q 102 422 51 418 l 51 523 q 104 518 161 518 q 164 544 165 557 q 166 569 167 575 q 167 581 167 583 q 167 584 167 588 q 167 602 168 619 q 169 637 171 660 z m 225 293 l 322 293 l 335 424 l 237 424 q 235 409 234 391 q 232 373 231 355 q 229 337 228 321 q 226 305 225 293 z"},",":{"x_min":0,"x_max":216,"ha":216,"o":"m 37 -87 q 58 -70 72 -48 q 87 -26 97 0 q 68 0 50 21 q 31 41 31 70 q 31 102 53 124 q 74 146 106 146 q 143 146 164 120 q 185 93 185 56 q 185 19 167 -19 q 148 -57 119 -87 z"},"n":{"x_min":0,"x_max":443,"ha":443,"o":"m 144 395 q 168 414 195 425 q 222 437 251 437 q 334 437 381 371 q 422 313 422 227 q 422 128 376 31 q 336 -54 260 -134 l 174 -61 q 233 -14 270 65 q 307 144 307 221 q 307 268 289 298 q 268 335 225 335 q 204 335 184 325 q 171 319 148 302 q 148 264 148 226 q 147 188 147 150 q 147 90 149 66 q 150 42 155 0 l 31 0 q 44 99 44 211 q 44 313 31 430 l 144 430 z"},"h":{"x_min":0,"x_max":444,"ha":444,"o":"m 148 551 l 148 401 q 171 417 198 427 q 225 437 251 437 q 332 437 380 371 q 423 312 423 228 q 423 128 377 31 q 335 -57 260 -134 l 173 -60 q 234 -11 271 66 q 308 143 308 223 q 308 269 289 299 q 267 335 224 335 q 204 335 184 326 q 170 320 148 305 q 148 280 147 229 q 146 178 146 151 q 146 95 148 70 q 149 46 155 0 l 31 0 q 35 27 36 52 q 37 77 37 110 q 37 163 40 271 q 43 380 43 436 q 43 523 41 557 q 39 590 31 651 l 155 651 q 148 604 148 551 z"},"z":{"x_min":0,"x_max":375,"ha":375,"o":"m 31 0 l 31 93 q 77 145 140 241 q 191 320 200 334 l 143 334 q 94 334 45 328 l 45 430 l 337 430 l 337 343 q 299 292 250 222 q 208 159 166 98 l 247 98 l 259 98 q 297 98 344 103 l 344 0 z"},"B":{"x_min":0,"x_max":458,"ha":458,"o":"m 39 130 l 39 521 q 39 545 39 574 q 38 604 31 651 l 229 650 q 315 650 361 619 q 416 582 416 499 q 416 457 400 421 q 384 386 353 349 q 446 284 446 174 q 446 81 388 38 q 336 0 241 0 l 31 0 q 35 26 37 62 q 39 97 39 130 z m 156 345 l 201 422 q 219 418 229 414 q 238 410 260 400 q 280 423 292 444 q 303 466 303 490 q 303 524 282 536 q 262 547 225 547 l 156 547 z m 226 104 q 271 104 296 118 q 327 137 327 181 q 327 239 270 278 q 224 310 156 321 l 156 104 z"},"K":{"x_min":0,"x_max":463,"ha":463,"o":"m 164 0 l 31 0 q 37 51 40 116 q 43 181 43 235 q 43 285 41 400 q 39 515 39 521 q 39 545 39 574 q 38 604 31 651 l 164 651 q 156 586 156 527 l 156 409 q 203 473 251 536 q 307 612 339 669 l 434 592 q 389 550 336 478 q 292 416 249 354 q 252 351 315 253 q 358 188 385 150 q 422 99 462 54 l 354 -20 q 324 50 262 143 q 209 219 156 295 q 156 264 156 233 q 155 202 155 172 q 155 110 157 78 q 158 45 164 0 z"},"R":{"x_min":0,"x_max":470,"ha":470,"o":"m 239 406 l 261 372 q 281 395 294 420 q 307 445 307 470 q 307 516 284 532 q 261 548 213 548 l 156 548 l 156 345 z m 358 -21 q 339 26 316 72 q 294 117 269 162 q 239 214 210 255 q 182 297 156 323 l 156 130 q 156 104 156 86 q 156 68 157 58 q 158 51 159 42 q 159 33 161 23 q 162 13 164 0 l 31 0 q 35 34 37 66 q 39 99 39 130 l 39 529 q 39 552 38 580 q 37 607 31 651 l 219 651 q 316 651 365 616 q 423 573 423 478 q 423 419 396 368 q 370 317 324 276 q 341 248 354 226 q 366 203 374 188 q 399 142 424 104 q 448 67 469 42 z"},"T":{"x_min":0,"x_max":426,"ha":426,"o":"m 145 0 q 147 32 149 64 q 151 97 151 130 l 151 547 q 110 547 72 546 q 34 546 -11 540 l -11 651 l 432 651 l 432 540 q 404 543 376 545 q 348 547 321 547 l 269 547 q 269 495 267 375 q 265 256 265 247 q 265 108 276 0 z"},"P":{"x_min":0,"x_max":438,"ha":438,"o":"m 156 130 q 156 78 158 58 q 159 37 164 0 l 31 0 q 39 68 39 130 l 39 521 q 39 545 39 574 q 38 604 31 651 l 227 651 q 319 651 369 616 q 427 575 427 485 q 427 391 360 320 q 306 262 207 220 l 156 298 z m 156 317 q 221 341 259 375 q 309 420 309 478 q 309 520 280 535 q 260 547 214 547 l 156 547 z"},"|":{"x_min":0,"x_max":187,"ha":187,"o":"m 31 -145 q 37 -98 37 -50 l 37 570 q 37 591 35 620 q 33 648 31 672 l 155 672 q 148 627 148 572 l 148 -34 q 148 -94 155 -145 z"},"t":{"x_min":0,"x_max":266,"ha":266,"o":"m 161 165 q 161 131 168 114 q 179 88 208 88 q 223 88 236 93 q 249 98 266 107 l 266 13 q 222 -7 175 -7 q 98 -7 67 56 q 44 104 44 193 q 44 228 46 278 q 49 328 49 330 l 5 326 l 5 430 l 52 430 q 52 467 45 500 l 168 561 q 161 527 161 490 q 160 453 160 438 l 160 430 l 248 430 l 248 326 q 229 328 208 330 q 186 332 168 332 l 161 332 z"},"M":{"x_min":0,"x_max":609,"ha":609,"o":"m 503 672 l 608 599 q 599 589 579 564 q 559 540 549 526 q 549 477 547 361 q 545 245 545 236 q 545 161 547 113 q 549 65 557 0 l 424 0 q 428 26 430 62 q 432 97 432 130 l 432 369 l 300 177 l 172 369 q 172 327 171 285 q 171 242 171 200 q 171 129 172 91 q 174 53 180 0 l 50 0 q 54 26 56 62 q 58 97 58 130 l 58 526 q 52 534 38 554 q 20 579 1 599 l 110 672 q 136 607 200 515 q 252 442 304 370 q 324 400 372 467 q 414 525 441 567 q 480 627 503 672 z"},"g":{"x_min":0,"x_max":414,"ha":414,"o":"m 96 142 q 61 166 41 201 q 21 235 21 278 q 21 352 68 395 q 114 438 188 438 q 206 438 255 432 q 283 428 295 428 q 318 428 338 430 q 357 433 388 438 l 388 338 l 333 344 q 349 308 349 274 q 349 205 302 163 q 255 120 185 120 l 163 78 q 207 95 253 95 q 312 95 353 58 q 393 21 393 -38 q 393 -136 297 -192 q 222 -237 111 -248 l 84 -142 l 100 -142 q 154 -142 210 -119 q 281 -91 281 -44 q 281 -22 263 -13 q 245 -3 223 -3 q 192 -3 158 -15 q 132 -23 99 -42 l 32 26 z m 185 351 q 154 351 138 330 q 122 310 122 278 q 122 248 139 228 q 156 207 187 207 q 217 207 231 228 q 246 249 246 281 q 246 312 230 331 q 215 351 185 351 z"},"j":{"x_min":0,"x_max":253,"ha":253,"o":"m 14 -244 l -42 -152 q 34 -113 67 -31 q 94 35 94 134 q 94 191 95 228 q 96 264 97 295 q 97 334 95 367 q 93 400 87 430 l 212 430 q 207 390 206 358 q 205 327 205 277 q 205 250 205 224 q 205 197 206 172 q 206 -13 154 -104 q 109 -183 14 -244 z m 150 655 q 180 655 201 634 q 222 613 222 584 q 222 555 201 533 q 181 512 150 512 q 122 512 101 533 q 79 555 79 584 q 79 613 100 634 q 121 655 150 655 z"},"i":{"x_min":0,"x_max":205,"ha":205,"o":"m 41 0 q 47 47 47 95 l 47 328 q 47 349 45 377 q 43 406 41 430 l 165 430 q 158 385 158 330 l 158 110 q 158 51 165 0 z m 103 655 q 132 655 153 634 q 174 613 174 584 q 174 555 153 533 q 133 512 103 512 q 74 512 53 533 q 31 555 31 584 q 31 613 52 634 q 73 655 103 655 z"},"y":{"x_min":0,"x_max":396,"ha":396,"o":"m 74 -202 q 97 -157 120 -80 q 126 -61 144 -4 q 137 16 101 133 q 69 232 56 272 q 31 342 1 407 l 119 442 q 130 366 164 256 q 182 200 199 145 q 227 243 240 292 q 266 386 275 442 l 395 407 q 385 389 374 359 q 363 329 356 308 l 185 -240 z"},"@":{"x_min":0,"x_max":817,"ha":817,"o":"m 478 285 q 464 313 452 330 q 439 346 420 346 q 395 346 377 327 q 360 308 350 281 q 339 254 334 224 q 330 194 330 173 q 330 140 342 119 q 354 99 379 99 q 396 99 414 117 q 433 136 458 165 z m 786 295 q 786 237 772 184 q 758 131 730 90 q 703 50 664 26 q 625 2 575 2 q 553 2 537 7 q 521 13 509 22 q 497 32 489 47 q 480 62 472 81 q 435 40 404 21 q 373 2 342 2 q 309 2 287 16 q 265 29 251 51 q 238 73 233 101 q 228 129 228 157 q 228 183 231 214 q 235 245 244 277 q 253 309 267 339 q 281 370 302 394 q 322 417 350 432 q 377 446 413 446 q 429 446 440 442 q 452 438 462 429 q 473 420 483 407 q 493 394 506 376 q 509 394 513 407 q 517 421 520 438 l 605 438 q 589 373 579 306 q 568 239 561 176 q 560 162 559 148 q 558 134 560 123 q 562 112 567 105 q 573 99 587 99 q 606 99 624 115 q 641 132 653 159 q 666 186 673 220 q 681 254 681 290 q 681 334 670 378 q 659 422 633 458 q 606 493 562 516 q 517 538 447 538 q 363 538 304 503 q 245 469 208 414 q 171 359 153 292 q 136 225 136 159 q 136 95 155 48 q 174 2 207 -28 q 239 -58 282 -71 q 325 -85 373 -85 q 420 -85 469 -72 q 519 -59 567 -36 l 566 -142 q 517 -161 468 -171 q 419 -181 371 -181 q 303 -181 241 -160 q 180 -139 133 -96 q 86 -54 59 11 q 31 75 31 162 q 31 249 55 334 q 79 420 131 487 q 183 555 264 596 q 345 638 459 638 q 541 638 603 610 q 664 582 705 535 q 746 488 766 426 q 786 364 786 295 z"},".":{"x_min":0,"x_max":212,"ha":212,"o":"m 106 143 q 138 143 159 121 q 181 100 181 68 q 181 37 160 15 q 139 -7 106 -7 q 75 -7 53 15 q 31 37 31 68 q 31 100 53 121 q 74 143 106 143 z"},"p":{"x_min":0,"x_max":431,"ha":431,"o":"m 211 92 q 232 92 249 104 q 266 116 276 138 q 284 155 289 178 q 294 200 294 223 q 294 267 280 296 q 271 314 255 325 q 240 335 221 335 q 201 335 181 322 q 173 317 165 310 q 156 303 148 294 l 148 121 q 161 110 178 101 q 195 92 211 92 z m 141 390 q 166 409 193 420 q 220 432 248 432 q 327 432 371 365 q 409 308 409 224 q 409 136 366 69 q 316 -7 232 -7 q 210 -7 190 0 q 171 6 148 19 l 148 -73 q 148 -99 148 -119 q 148 -140 149 -155 q 150 -188 155 -226 l 31 -226 q 37 -172 37 -115 q 37 -85 37 -49 q 37 -13 38 31 q 38 39 39 52 q 39 64 39 72 q 42 187 42 205 q 42 268 40 321 q 38 374 31 430 l 141 430 z"},"X":{"x_min":0,"x_max":514,"ha":514,"o":"m 498 41 l 379 -17 q 359 42 323 112 q 278 195 258 235 q 243 208 205 145 q 146 45 125 -16 l 16 45 q 62 99 112 191 q 153 269 194 346 q 153 432 131 476 q 92 554 56 603 l 167 664 q 183 619 212 558 q 237 505 263 453 q 291 505 319 557 q 353 619 370 664 l 475 604 q 447 566 415 510 q 409 500 326 346 q 348 306 379 244 q 420 163 434 140 q 463 88 498 41 z"},"*":{"x_min":0,"x_max":339,"ha":339,"o":"m 31 481 l 31 559 l 123 547 l 67 621 l 134 659 l 170 573 l 205 659 l 271 621 l 216 547 l 308 558 l 308 481 l 216 493 l 271 420 l 205 381 l 170 467 l 134 381 l 67 420 l 123 493 z"},"Y":{"x_min":0,"x_max":479,"ha":479,"o":"m 170 -3 q 178 65 178 127 l 178 263 l 59 507 q 37 549 32 558 q 19 583 1 607 l 118 665 q 140 592 188 492 q 212 441 237 392 q 271 459 307 526 q 350 611 368 667 l 478 604 q 427 530 373 432 q 315 326 295 264 q 292 255 292 212 q 292 150 295 91 q 298 32 303 -3 z"},"c":{"x_min":0,"x_max":357,"ha":357,"o":"m 336 22 q 307 8 278 0 q 250 -7 219 -7 q 130 -7 76 55 q 21 117 21 208 q 21 301 71 365 q 127 437 218 437 q 271 437 323 408 l 323 299 q 303 316 279 327 q 256 338 232 338 q 186 338 159 299 q 137 265 137 215 q 137 165 159 132 q 186 93 232 93 q 261 93 286 105 q 312 118 336 141 z"},"!":{"x_min":0,"x_max":212,"ha":212,"o":"m 54 181 q 54 219 55 297 q 56 376 56 416 q 56 487 53 541 q 51 594 44 651 l 169 651 q 162 600 159 527 q 156 454 156 396 q 156 359 157 287 q 158 215 158 181 z m 106 143 q 137 143 159 121 q 181 99 181 68 q 181 38 159 16 q 138 -7 106 -7 q 75 -7 53 15 q 31 37 31 68 q 31 100 53 121 q 74 143 106 143 z"},"/":{"x_min":0,"x_max":395,"ha":395,"o":"m 31 -5 q 43 15 50 34 q 58 53 66 80 q 76 108 95 162 q 113 215 139 285 q 160 346 178 396 q 195 447 209 491 q 227 548 241 603 q 256 657 266 702 l 363 653 q 350 627 327 570 q 305 514 273 425 q 248 354 224 278 q 199 203 175 122 q 126 -38 129 -51 z"},"[":{"x_min":0,"x_max":253,"ha":253,"o":"m 222 734 l 222 631 l 156 637 l 156 14 q 176 14 195 17 q 214 20 222 21 l 222 -83 l 31 -83 q 39 -25 39 47 q 39 126 42 267 q 46 408 46 449 q 46 526 43 597 q 40 667 31 734 z"},"6":{"x_min":0,"x_max":486,"ha":486,"o":"m 428 583 q 354 561 298 516 q 242 472 199 404 q 241 427 281 427 q 361 427 410 363 q 455 305 455 222 q 455 123 397 57 q 340 -9 242 -9 q 142 -9 84 65 q 31 134 31 237 q 31 384 134 509 q 227 622 372 683 z m 153 227 q 153 176 174 140 q 199 95 247 95 q 292 95 315 134 q 335 166 335 214 q 335 261 315 290 q 292 325 248 325 q 226 325 205 316 q 185 308 162 292 q 153 260 153 227 z"},"r":{"x_min":0,"x_max":257,"ha":257,"o":"m 142 392 q 159 411 178 422 q 197 433 221 433 q 240 433 261 425 l 261 318 q 249 326 237 331 q 226 335 214 335 q 196 335 181 327 q 165 319 148 305 l 148 110 q 148 51 155 0 l 31 0 q 37 49 37 100 l 37 319 q 37 375 31 430 l 142 430 z"},"2":{"x_min":0,"x_max":443,"ha":443,"o":"m 412 0 l 31 0 l 31 97 q 60 130 96 180 q 132 229 174 292 q 222 365 249 417 q 276 469 276 489 q 276 521 254 538 q 231 555 200 555 q 166 555 130 540 q 99 528 68 505 l 68 619 q 103 637 139 646 q 176 656 214 656 q 290 656 344 613 q 396 570 396 495 q 396 470 384 435 q 371 399 349 357 q 332 327 307 289 q 281 250 251 206 q 241 192 232 180 q 224 167 214 154 q 204 141 195 128 q 186 116 177 104 l 282 104 q 316 104 349 105 q 382 106 412 110 z"},"{":{"x_min":0,"x_max":336,"ha":336,"o":"m 129 265 q 181 248 204 209 q 228 171 228 104 l 228 6 q 228 -43 246 -60 q 264 -76 304 -65 l 305 -165 q 259 -163 224 -159 q 188 -154 164 -137 q 140 -119 127 -83 q 114 -47 115 19 l 116 105 q 116 159 90 187 q 64 214 31 219 l 31 310 q 64 314 90 342 q 116 369 116 423 l 115 501 q 114 566 126 604 q 139 641 163 660 q 188 679 223 684 q 259 689 305 691 l 304 591 q 264 600 246 583 q 228 567 228 519 l 228 425 q 228 357 204 319 q 181 280 129 264 z"},"9":{"x_min":0,"x_max":483,"ha":483,"o":"m 210 241 q 129 241 78 308 q 31 368 31 451 q 31 543 88 601 q 145 658 237 658 q 341 658 399 582 q 452 513 452 406 q 452 271 360 149 q 276 38 146 -25 l 85 69 q 154 95 213 151 q 265 201 307 273 q 283 258 259 250 q 235 241 210 241 z m 332 415 q 332 471 312 511 q 285 562 233 562 q 193 562 172 533 q 150 504 150 462 q 150 416 174 380 q 198 345 242 345 q 268 345 290 355 q 312 366 330 385 z"}," ":{"x_min":0,"x_max":425,"ha":425,"o":""},"I":{"x_min":0,"x_max":195,"ha":195,"o":"m 31 0 q 35 26 37 62 q 39 97 39 130 l 39 521 q 39 583 31 651 l 164 651 q 160 618 158 587 q 156 557 156 521 l 156 130 q 156 78 158 58 q 159 37 164 0 z"},"H":{"x_min":0,"x_max":523,"ha":523,"o":"m 185 294 q 185 266 184 238 q 184 210 184 183 q 184 114 185 85 q 187 56 192 0 l 60 0 q 63 32 65 62 q 67 93 67 130 l 67 292 l 31 287 l 31 403 l 67 398 l 67 463 l 67 486 q 67 552 66 578 q 64 604 60 651 l 192 651 q 185 583 185 521 l 185 397 l 367 397 l 367 521 q 367 587 358 651 l 492 651 q 488 625 486 589 q 484 553 484 521 q 484 455 483 414 q 479 250 479 232 q 479 154 482 109 q 484 63 492 0 l 358 0 q 367 64 367 130 l 367 294 z"},"4":{"x_min":0,"x_max":461,"ha":461,"o":"m 256 261 l 256 272 q 256 339 247 403 l 375 403 q 371 377 369 341 q 367 305 367 272 l 367 262 l 430 267 l 430 153 l 367 158 q 367 105 368 74 q 369 42 375 0 l 247 0 q 252 37 254 78 q 256 119 256 160 q 221 160 141 158 q 61 156 56 156 l 1 252 q 74 348 142 457 q 220 584 255 675 l 357 612 q 305 549 240 440 q 188 351 136 261 z"},"~":{"x_min":0,"x_max":603,"ha":603,"o":"m 571 451 q 564 414 551 382 q 538 351 519 327 q 500 304 476 291 q 451 277 421 277 q 394 277 364 286 q 334 295 305 306 q 276 317 251 326 q 227 335 208 335 q 186 335 180 318 q 175 302 171 277 l 31 277 q 38 315 52 347 q 66 379 85 402 q 104 425 126 438 q 148 451 173 451 q 208 451 237 442 q 266 434 292 422 q 318 411 343 402 q 368 394 396 394 q 416 394 423 411 q 431 429 435 451 z"},"D":{"x_min":0,"x_max":511,"ha":511,"o":"m 156 592 l 209 672 q 332 614 407 509 q 486 396 486 266 q 486 132 418 66 q 351 0 218 0 l 31 0 q 37 51 40 116 q 43 181 43 234 q 43 284 41 399 q 39 514 39 521 q 39 545 39 574 q 38 604 31 651 l 156 651 z m 190 104 q 279 104 319 139 q 363 177 363 266 q 363 364 305 446 q 250 522 156 568 l 156 104 z"},"^":{"x_min":0,"x_max":417,"ha":417,"o":"m 254 680 q 260 666 268 647 q 276 629 286 608 q 296 588 306 567 q 315 547 323 531 q 336 505 351 480 q 366 455 386 427 l 281 409 q 276 426 272 438 q 268 451 263 462 q 259 474 253 485 q 248 497 242 512 q 232 535 222 559 q 212 583 205 595 q 196 573 187 555 q 178 537 169 516 q 144 462 133 410 l 31 426 q 46 448 58 473 q 70 497 80 517 q 78 514 83 524 q 89 535 97 553 q 105 570 116 592 q 126 613 135 632 q 145 651 150 665 q 156 678 157 680 z"},"0":{"x_min":0,"x_max":511,"ha":511,"o":"m 255 -7 q 129 -7 73 103 q 31 186 31 326 q 31 468 72 549 q 127 657 255 657 q 382 657 438 548 q 479 466 479 325 q 479 185 438 103 q 382 -7 255 -7 z m 256 556 q 192 556 169 467 q 155 415 155 325 q 155 205 180 150 q 205 96 256 96 q 319 96 343 185 q 356 236 356 325 q 356 417 344 466 q 320 556 256 556 z"},"F":{"x_min":0,"x_max":398,"ha":398,"o":"m 60 0 q 63 26 65 62 q 67 97 67 130 l 67 278 l 31 273 l 31 387 l 67 382 l 67 521 q 67 573 66 594 q 64 614 60 651 l 387 651 l 387 540 q 359 543 332 545 q 305 547 276 547 l 185 547 l 185 382 l 229 382 l 246 382 q 303 382 360 388 l 360 275 q 336 278 311 280 q 285 282 261 282 l 185 282 l 185 130 q 185 68 192 0 z"},"`":{"x_min":0,"x_max":196,"ha":196,"o":"m 116 508 l 31 636 l 108 679 l 165 533 z"},"k":{"x_min":0,"x_max":392,"ha":392,"o":"m 155 0 l 31 0 q 36 56 38 120 q 40 184 40 244 q 40 317 39 392 q 38 466 37 540 q 37 596 31 651 l 155 651 q 150 626 149 605 q 148 585 148 551 l 148 322 q 215 394 220 399 q 239 422 259 450 l 341 372 q 319 354 291 326 q 279 314 244 278 q 289 197 312 156 q 353 86 391 38 l 286 -21 q 267 33 223 109 q 186 172 148 234 q 148 210 148 186 q 147 161 147 137 q 147 81 149 60 q 150 39 155 0 z"},"u":{"x_min":0,"x_max":428,"ha":428,"o":"m 287 37 q 261 16 237 5 q 213 -6 183 -6 q 103 -6 57 60 q 16 118 16 201 q 16 267 38 327 q 61 388 102 446 l 203 396 q 169 363 149 312 q 129 260 129 210 q 129 166 146 134 q 167 93 208 93 q 227 93 245 104 q 263 115 278 133 l 278 319 q 278 375 272 430 l 396 430 q 390 383 390 330 l 390 110 q 390 52 396 0 l 287 0 z"},"]":{"x_min":0,"x_max":253,"ha":253,"o":"m 31 -83 l 31 21 q 53 18 69 16 q 85 14 97 14 l 97 637 l 31 631 l 31 734 l 222 734 q 214 666 214 604 q 214 540 211 409 q 208 278 208 211 q 208 112 210 56 q 213 0 222 -83 z"},"U":{"x_min":0,"x_max":523,"ha":523,"o":"m 373 41 q 321 -8 242 -8 q 131 -8 72 81 q 21 157 21 274 q 21 383 62 488 q 104 594 178 673 l 268 600 q 208 530 175 449 q 142 367 142 279 q 142 208 165 161 q 196 99 260 99 q 291 99 317 115 q 343 131 367 159 q 367 206 369 315 q 371 425 371 433 q 371 552 360 651 l 492 651 q 486 601 483 536 q 480 471 480 416 q 480 366 482 251 q 484 137 484 130 q 484 68 492 0 l 373 0 z"},"o":{"x_min":0,"x_max":441,"ha":441,"o":"m 222 -7 q 130 -7 76 57 q 21 121 21 215 q 21 309 73 370 q 129 436 222 436 q 313 436 368 370 q 420 309 420 215 q 420 121 368 60 q 312 -7 222 -7 z m 221 342 q 176 342 154 299 q 137 264 137 215 q 137 165 153 132 q 176 88 221 88 q 267 88 288 131 q 305 164 305 215 q 305 265 288 298 q 266 342 221 342 z"},"N":{"x_min":0,"x_max":497,"ha":497,"o":"m 164 386 q 164 338 164 290 q 163 241 163 192 q 163 120 165 89 q 166 59 172 0 l 43 0 q 47 32 49 62 q 51 93 51 130 l 51 543 q 32 567 27 573 q 19 584 1 603 l 106 676 q 134 619 180 553 q 223 494 266 436 q 318 363 345 315 q 345 352 345 388 q 345 425 346 462 q 346 515 344 561 q 342 607 336 651 l 466 651 q 462 618 460 587 q 458 557 458 521 q 458 472 456 358 q 454 244 454 235 q 454 160 456 112 q 458 64 466 0 l 336 0 q 339 25 342 62 q 345 99 345 124 q 335 139 275 221 q 199 327 164 386 z"},"+":{"x_min":0,"x_max":521,"ha":521,"o":"m 198 15 q 204 62 204 109 l 204 184 l 130 184 q 109 184 88 182 q 67 181 31 177 l 31 282 q 73 276 115 276 l 204 276 l 204 343 q 204 363 202 392 q 200 421 198 444 l 322 444 q 315 399 315 345 l 315 276 l 396 276 q 443 276 489 282 l 489 177 q 466 180 441 182 q 416 184 392 184 l 315 184 l 315 125 q 315 65 322 15 z"},"G":{"x_min":0,"x_max":516,"ha":516,"o":"m 483 350 q 471 273 471 180 q 471 89 484 2 q 438 -9 395 -9 q 233 -9 123 110 q 12 229 12 392 q 12 514 85 587 q 158 660 281 660 q 312 660 347 655 q 382 649 418 641 l 418 529 q 389 541 354 548 q 320 556 290 556 q 217 556 176 510 q 135 464 135 389 q 135 284 197 201 q 264 113 364 102 l 364 252 q 318 252 272 246 l 272 350 z"},"q":{"x_min":0,"x_max":426,"ha":426,"o":"m 277 23 q 256 10 232 1 q 208 -7 185 -7 q 105 -7 61 62 q 21 121 21 204 q 21 289 62 354 q 110 431 191 431 q 244 431 284 394 l 284 430 l 395 430 q 389 377 386 312 q 383 247 383 191 q 383 120 385 10 q 388 -100 388 -115 q 388 -175 395 -226 l 271 -226 q 275 -187 276 -154 q 277 -122 277 -70 z m 216 335 q 175 335 153 289 q 137 253 137 206 q 137 162 150 134 q 169 96 208 96 q 227 96 242 104 q 258 112 277 129 l 277 298 q 266 313 250 324 q 233 335 216 335 z"},"d":{"x_min":0,"x_max":432,"ha":432,"o":"m 290 42 q 267 20 242 8 q 217 -4 187 -4 q 107 -4 62 63 q 21 122 21 205 q 21 294 64 360 q 113 437 198 437 q 220 437 241 430 q 263 424 283 411 l 283 501 l 283 520 q 283 590 276 651 l 400 651 q 394 600 394 540 q 394 475 391 364 q 389 254 389 232 q 389 102 400 0 l 290 0 z m 222 339 q 178 339 155 291 q 138 253 138 204 q 138 161 152 133 q 172 96 211 96 q 230 96 251 108 q 266 117 283 136 l 283 312 q 267 325 252 332 q 238 339 222 339 z"},"1":{"x_min":0,"x_max":279,"ha":279,"o":"m 31 492 l 31 561 q 128 561 174 654 l 248 654 q 244 630 242 596 q 240 562 240 531 l 240 127 q 240 102 240 84 q 240 66 241 56 q 242 50 243 42 q 243 35 245 26 q 246 15 248 0 l 114 0 q 123 64 123 130 l 123 492 z"},"5":{"x_min":0,"x_max":410,"ha":410,"o":"m 372 541 q 348 544 322 546 q 297 548 272 548 l 181 548 l 161 446 q 190 454 217 454 q 288 454 333 404 q 379 354 379 281 q 379 150 272 67 q 175 -9 43 -9 l 31 104 l 49 104 q 123 104 187 146 q 258 194 258 266 q 258 302 236 326 q 214 350 179 350 q 158 350 140 343 q 122 337 103 324 l 33 394 q 55 453 69 523 q 83 593 83 651 l 372 651 z"}}}
